<svg width="2003" height="490" viewBox="0 0 2003 490" fill="none" xmlns="http://www.w3.org/2000/svg">
<path d="M286 11.2C247.333 30.4 216 53.2 187.2 83.0667C154.133 117.2 128.533 157.2 112.933 198.667C105.467 218.533 105.2 216 116.933 233.6C122.667 242.267 127.733 249.333 128.267 249.333C128.8 249.333 130.533 246.8 132.133 243.733C148.133 212.267 188.933 165.2 224.533 136.933C252.667 114.667 287.867 93.2 321.6 77.8667L338.533 70.2667L336.8 66.1333C335.867 63.8667 329.467 48 322.667 30.9333C315.733 14 309.733 -2.83122e-06 309.333 -2.83122e-06C308.933 -2.83122e-06 298.4 5.06666 286 11.2Z" fill="#2563EB"/>
<path d="M272.667 110.4C266.133 114.667 258.4 119.6 255.733 121.467L250.8 124.8L265.067 134.133C309.733 163.067 351.333 206.267 382.667 256.267C391.2 269.867 413.467 312.8 417.733 323.6C418.933 326.8 420.533 329.333 421.067 329.333C422.8 329.333 488.533 302.533 489.733 301.333C491.333 300 480.4 275.733 470.533 258.933C452.667 228 436.933 207.467 412 182.667C386.8 157.333 364.8 140.8 334 123.6C319.2 115.333 290.533 102.667 286.933 102.667C285.733 102.8 279.333 106.267 272.667 110.4Z" fill="#2563EB"/>
<path d="M34.4 171.733C15.4667 179.467 0 186.4 0 187.067C0 189.067 14.5333 218.933 20.9333 230C62.2667 301.2 123.867 354.267 198.667 383.2C204.933 385.6 213.467 388.667 217.6 389.867L225.2 392L241.2 382.4C250.133 377.067 257.333 372.4 257.333 372C257.333 371.6 252.8 368.933 247.2 366.133C211.467 347.867 166.533 309.067 136.133 270.667C113.733 242.4 90.1333 203.2 76.4 171.6C72.9333 163.733 69.8667 157.467 69.4667 157.467C69.0667 157.6 53.2 164 34.4 171.733Z" fill="#2563EB"/>
<path d="M247.6 208C232.8 210.533 218.133 223.733 213.867 238.267C206.4 264.133 222.533 290.4 248.4 294.4C268.4 297.6 287.333 287.6 295.733 269.6C310.533 237.467 282.933 202 247.6 208Z" fill="#2563EB"/>
<path d="M374 269.733C360.533 290 337.867 316 316.933 334.8C282.133 366 244.667 390.4 198.933 411.467C190.4 415.467 183.333 419.2 183.333 419.733C183.333 420.4 189.6 436.267 197.2 454.933L210.933 489.067L215.2 487.6C225.067 484.133 259.2 465.733 274.533 455.467C297.6 440 311.2 428.933 330 410C356.667 383.333 376 357.067 393.2 324L402.533 306L397.733 297.333C388 279.6 379.6 265.2 378.667 264.667C378.133 264.267 376 266.533 374 269.733Z" fill="#2563EB"/>
<path d="M699.844 338.867C683.644 338.867 669.144 335.367 656.344 328.367C643.744 321.367 633.844 311.767 626.644 299.567C619.444 287.367 615.844 273.367 615.844 257.567C615.844 241.767 619.444 227.767 626.644 215.567C633.844 203.367 643.744 193.867 656.344 187.067C669.144 180.067 683.644 176.567 699.844 176.567C714.244 176.567 727.044 179.467 738.244 185.267C749.644 190.867 758.444 199.267 764.644 210.467L742.744 224.567C737.544 216.767 731.144 211.067 723.544 207.467C716.144 203.667 708.144 201.767 699.544 201.767C689.144 201.767 679.844 204.067 671.644 208.667C663.444 213.267 656.944 219.767 652.144 228.167C647.344 236.367 644.944 246.167 644.944 257.567C644.944 268.967 647.344 278.867 652.144 287.267C656.944 295.667 663.444 302.167 671.644 306.767C679.844 311.367 689.144 313.667 699.544 313.667C708.144 313.667 716.144 311.867 723.544 308.267C731.144 304.467 737.544 298.667 742.744 290.867L764.644 304.667C758.444 315.667 749.644 324.167 738.244 330.167C727.044 335.967 714.244 338.867 699.844 338.867ZM867.687 338.867C851.687 338.867 837.487 335.367 825.087 328.367C812.687 321.367 802.887 311.767 795.687 299.567C788.487 287.167 784.887 273.167 784.887 257.567C784.887 241.767 788.487 227.767 795.687 215.567C802.887 203.367 812.687 193.867 825.087 187.067C837.487 180.067 851.687 176.567 867.687 176.567C883.487 176.567 897.587 180.067 909.987 187.067C922.587 193.867 932.387 203.367 939.387 215.567C946.587 227.567 950.187 241.567 950.187 257.567C950.187 273.367 946.587 287.367 939.387 299.567C932.387 311.767 922.587 321.367 909.987 328.367C897.587 335.367 883.487 338.867 867.687 338.867ZM867.687 313.667C877.887 313.667 886.987 311.367 894.987 306.767C903.187 302.167 909.587 295.667 914.187 287.267C918.787 278.667 921.087 268.767 921.087 257.567C921.087 246.167 918.787 236.367 914.187 228.167C909.587 219.767 903.187 213.267 894.987 208.667C886.987 204.067 877.887 201.767 867.687 201.767C857.487 201.767 848.387 204.067 840.387 208.667C832.387 213.267 825.987 219.767 821.187 228.167C816.387 236.367 813.987 246.167 813.987 257.567C813.987 268.767 816.387 278.667 821.187 287.267C825.987 295.667 832.387 302.167 840.387 306.767C848.387 311.367 857.487 313.667 867.687 313.667ZM1055.72 338.867C1040.32 338.867 1026.52 335.467 1014.32 328.667C1002.32 321.867 992.817 312.367 985.817 300.167C978.817 287.967 975.317 273.767 975.317 257.567C975.317 241.367 978.817 227.267 985.817 215.267C992.817 203.067 1002.32 193.567 1014.32 186.767C1026.52 179.967 1040.32 176.567 1055.72 176.567C1069.12 176.567 1081.22 179.567 1092.02 185.567C1102.82 191.567 1111.42 200.567 1117.82 212.567C1124.42 224.567 1127.72 239.567 1127.72 257.567C1127.72 275.567 1124.52 290.567 1118.12 302.567C1111.92 314.567 1103.42 323.667 1092.62 329.867C1081.82 335.867 1069.52 338.867 1055.72 338.867ZM1058.12 313.667C1068.12 313.667 1077.12 311.367 1085.12 306.767C1093.32 302.167 1099.72 295.667 1104.32 287.267C1109.12 278.667 1111.52 268.767 1111.52 257.567C1111.52 246.167 1109.12 236.367 1104.32 228.167C1099.72 219.767 1093.32 213.267 1085.12 208.667C1077.12 204.067 1068.12 201.767 1058.12 201.767C1047.92 201.767 1038.82 204.067 1030.82 208.667C1022.82 213.267 1016.42 219.767 1011.62 228.167C1006.82 236.367 1004.42 246.167 1004.42 257.567C1004.42 268.767 1006.82 278.667 1011.62 287.267C1016.42 295.667 1022.82 302.167 1030.82 306.767C1038.82 311.367 1047.92 313.667 1058.12 313.667ZM1112.42 337.067V294.167L1114.22 257.267L1111.22 220.367V114.467H1140.02V337.067H1112.42ZM1265.31 338.867C1248.31 338.867 1233.31 335.367 1220.31 328.367C1207.51 321.367 1197.51 311.767 1190.31 299.567C1183.31 287.367 1179.81 273.367 1179.81 257.567C1179.81 241.767 1183.21 227.767 1190.01 215.567C1197.01 203.367 1206.51 193.867 1218.51 187.067C1230.71 180.067 1244.41 176.567 1259.61 176.567C1275.01 176.567 1288.61 179.967 1300.41 186.767C1312.21 193.567 1321.41 203.167 1328.01 215.567C1334.81 227.767 1338.21 242.067 1338.21 258.467C1338.21 259.667 1338.11 261.067 1337.91 262.667C1337.91 264.267 1337.81 265.767 1337.61 267.167H1202.31V246.467H1322.61L1310.91 253.667C1311.11 243.467 1309.01 234.367 1304.61 226.367C1300.21 218.367 1294.11 212.167 1286.31 207.767C1278.71 203.167 1269.81 200.867 1259.61 200.867C1249.61 200.867 1240.71 203.167 1232.91 207.767C1225.11 212.167 1219.01 218.467 1214.61 226.667C1210.21 234.667 1208.01 243.867 1208.01 254.267V259.067C1208.01 269.667 1210.41 279.167 1215.21 287.567C1220.21 295.767 1227.11 302.167 1235.91 306.767C1244.71 311.367 1254.81 313.667 1266.21 313.667C1275.61 313.667 1284.11 312.067 1291.71 308.867C1299.51 305.667 1306.31 300.867 1312.11 294.467L1328.01 313.067C1320.81 321.467 1311.81 327.867 1301.01 332.267C1290.41 336.667 1278.51 338.867 1265.31 338.867ZM1382.4 337.067V163.967C1382.4 148.367 1386.9 135.967 1395.9 126.767C1405.1 117.367 1418.1 112.667 1434.9 112.667C1441.1 112.667 1447 113.467 1452.6 115.067C1458.4 116.467 1463.3 118.767 1467.3 121.967L1458.6 143.867C1455.6 141.467 1452.2 139.667 1448.4 138.467C1444.6 137.067 1440.6 136.367 1436.4 136.367C1428 136.367 1421.6 138.767 1417.2 143.567C1412.8 148.167 1410.6 155.067 1410.6 164.267V185.567L1411.2 198.767V337.067H1382.4ZM1355.4 201.767V178.067H1456.8V201.767H1355.4ZM1549.72 338.867C1533.72 338.867 1519.52 335.367 1507.12 328.367C1494.72 321.367 1484.92 311.767 1477.72 299.567C1470.52 287.167 1466.92 273.167 1466.92 257.567C1466.92 241.767 1470.52 227.767 1477.72 215.567C1484.92 203.367 1494.72 193.867 1507.12 187.067C1519.52 180.067 1533.72 176.567 1549.72 176.567C1565.52 176.567 1579.62 180.067 1592.02 187.067C1604.62 193.867 1614.42 203.367 1621.42 215.567C1628.62 227.567 1632.22 241.567 1632.22 257.567C1632.22 273.367 1628.62 287.367 1621.42 299.567C1614.42 311.767 1604.62 321.367 1592.02 328.367C1579.62 335.367 1565.52 338.867 1549.72 338.867ZM1549.72 313.667C1559.92 313.667 1569.02 311.367 1577.02 306.767C1585.22 302.167 1591.62 295.667 1596.22 287.267C1600.82 278.667 1603.12 268.767 1603.12 257.567C1603.12 246.167 1600.82 236.367 1596.22 228.167C1591.62 219.767 1585.22 213.267 1577.02 208.667C1569.02 204.067 1559.92 201.767 1549.72 201.767C1539.52 201.767 1530.42 204.067 1522.42 208.667C1514.42 213.267 1508.02 219.767 1503.22 228.167C1498.42 236.367 1496.02 246.167 1496.02 257.567C1496.02 268.767 1498.42 278.667 1503.22 287.267C1508.02 295.667 1514.42 302.167 1522.42 306.767C1530.42 311.367 1539.52 313.667 1549.72 313.667ZM1672.05 337.067V114.467H1700.85V337.067H1672.05ZM1755.84 337.067V178.067H1784.64V337.067H1755.84ZM1770.24 147.467C1764.64 147.467 1759.94 145.667 1756.14 142.067C1752.54 138.467 1750.74 134.067 1750.74 128.867C1750.74 123.467 1752.54 118.967 1756.14 115.367C1759.94 111.767 1764.64 109.967 1770.24 109.967C1775.84 109.967 1780.44 111.767 1784.04 115.367C1787.84 118.767 1789.74 123.067 1789.74 128.267C1789.74 133.667 1787.94 138.267 1784.34 142.067C1780.74 145.667 1776.04 147.467 1770.24 147.467ZM1907.73 338.867C1891.73 338.867 1877.53 335.367 1865.13 328.367C1852.73 321.367 1842.93 311.767 1835.73 299.567C1828.53 287.167 1824.93 273.167 1824.93 257.567C1824.93 241.767 1828.53 227.767 1835.73 215.567C1842.93 203.367 1852.73 193.867 1865.13 187.067C1877.53 180.067 1891.73 176.567 1907.73 176.567C1923.53 176.567 1937.63 180.067 1950.03 187.067C1962.63 193.867 1972.43 203.367 1979.43 215.567C1986.63 227.567 1990.23 241.567 1990.23 257.567C1990.23 273.367 1986.63 287.367 1979.43 299.567C1972.43 311.767 1962.63 321.367 1950.03 328.367C1937.63 335.367 1923.53 338.867 1907.73 338.867ZM1907.73 313.667C1917.93 313.667 1927.03 311.367 1935.03 306.767C1943.23 302.167 1949.63 295.667 1954.23 287.267C1958.83 278.667 1961.13 268.767 1961.13 257.567C1961.13 246.167 1958.83 236.367 1954.23 228.167C1949.63 219.767 1943.23 213.267 1935.03 208.667C1927.03 204.067 1917.93 201.767 1907.73 201.767C1897.53 201.767 1888.43 204.067 1880.43 208.667C1872.43 213.267 1866.03 219.767 1861.23 228.167C1856.43 236.367 1854.03 246.167 1854.03 257.567C1854.03 268.767 1856.43 278.667 1861.23 287.267C1866.03 295.667 1872.43 302.167 1880.43 306.767C1888.43 311.367 1897.53 313.667 1907.73 313.667Z" fill="#393E46"/>
<path d="M773.67 428.667C770.39 428.667 767.37 428.147 764.61 427.107C761.89 426.027 759.51 424.527 757.47 422.607C755.43 420.647 753.85 418.347 752.73 415.707C751.61 413.067 751.05 410.187 751.05 407.067C751.05 403.947 751.61 401.067 752.73 398.427C753.85 395.787 755.43 393.507 757.47 391.587C759.55 389.627 761.97 388.127 764.73 387.087C767.49 386.007 770.51 385.467 773.79 385.467C777.35 385.467 780.55 386.047 783.39 387.207C786.27 388.367 788.69 390.067 790.65 392.307L785.73 397.107C784.09 395.467 782.31 394.267 780.39 393.507C778.51 392.707 776.43 392.307 774.15 392.307C771.95 392.307 769.91 392.667 768.03 393.387C766.15 394.107 764.53 395.127 763.17 396.447C761.81 397.767 760.75 399.327 759.99 401.127C759.27 402.927 758.91 404.907 758.91 407.067C758.91 409.187 759.27 411.147 759.99 412.947C760.75 414.747 761.81 416.327 763.17 417.687C764.53 419.007 766.13 420.027 767.97 420.747C769.81 421.467 771.85 421.827 774.09 421.827C776.17 421.827 778.17 421.507 780.09 420.867C782.05 420.187 783.91 419.067 785.67 417.507L790.11 423.327C787.91 425.087 785.35 426.427 782.43 427.347C779.55 428.227 776.63 428.667 773.67 428.667ZM782.73 422.307V406.587H790.11V423.327L782.73 422.307ZM830.398 428.067V386.067H847.678C851.398 386.067 854.578 386.667 857.218 387.867C859.898 389.067 861.958 390.787 863.398 393.027C864.838 395.267 865.558 397.927 865.558 401.007C865.558 404.087 864.838 406.747 863.398 408.987C861.958 411.187 859.898 412.887 857.218 414.087C854.578 415.247 851.398 415.827 847.678 415.827H834.718L838.198 412.287V428.067H830.398ZM857.878 428.067L847.258 412.827H855.598L866.278 428.067H857.878ZM838.198 413.127L834.718 409.407H847.318C850.758 409.407 853.338 408.667 855.058 407.187C856.818 405.707 857.698 403.647 857.698 401.007C857.698 398.327 856.818 396.267 855.058 394.827C853.338 393.387 850.758 392.667 847.318 392.667H834.718L838.198 388.827V413.127ZM923.965 428.667C920.685 428.667 917.665 428.127 914.905 427.047C912.145 425.967 909.745 424.467 907.705 422.547C905.665 420.587 904.085 418.307 902.965 415.707C901.845 413.067 901.285 410.187 901.285 407.067C901.285 403.947 901.845 401.087 902.965 398.487C904.085 395.847 905.665 393.567 907.705 391.647C909.745 389.687 912.145 388.167 914.905 387.087C917.665 386.007 920.665 385.467 923.905 385.467C927.185 385.467 930.185 386.007 932.905 387.087C935.665 388.167 938.065 389.687 940.105 391.647C942.145 393.567 943.725 395.847 944.845 398.487C945.965 401.087 946.525 403.947 946.525 407.067C946.525 410.187 945.965 413.067 944.845 415.707C943.725 418.347 942.145 420.627 940.105 422.547C938.065 424.467 935.665 425.967 932.905 427.047C930.185 428.127 927.205 428.667 923.965 428.667ZM923.905 421.827C926.025 421.827 927.985 421.467 929.785 420.747C931.585 420.027 933.145 419.007 934.465 417.687C935.785 416.327 936.805 414.767 937.525 413.007C938.285 411.207 938.665 409.227 938.665 407.067C938.665 404.907 938.285 402.947 937.525 401.187C936.805 399.387 935.785 397.827 934.465 396.507C933.145 395.147 931.585 394.107 929.785 393.387C927.985 392.667 926.025 392.307 923.905 392.307C921.785 392.307 919.825 392.667 918.025 393.387C916.265 394.107 914.705 395.147 913.345 396.507C912.025 397.827 910.985 399.387 910.225 401.187C909.505 402.947 909.145 404.907 909.145 407.067C909.145 409.187 909.505 411.147 910.225 412.947C910.985 414.747 912.025 416.327 913.345 417.687C914.665 419.007 916.225 420.027 918.025 420.747C919.825 421.467 921.785 421.827 923.905 421.827ZM993.403 428.067L979.483 386.067H987.583L1000 424.047H995.983L1008.88 386.067H1016.08L1028.62 424.047H1024.72L1037.44 386.067H1044.88L1030.96 428.067H1022.68L1011.22 393.807H1013.38L1001.74 428.067H993.403ZM1122.76 428.067L1141.66 386.067H1149.34L1168.3 428.067H1160.14L1143.88 390.207H1147L1130.8 428.067H1122.76ZM1131.46 418.347L1133.56 412.227H1156.24L1158.34 418.347H1131.46ZM1216.66 428.667C1213.38 428.667 1210.24 428.207 1207.24 427.287C1204.24 426.327 1201.86 425.107 1200.1 423.627L1202.8 417.567C1204.48 418.887 1206.56 419.987 1209.04 420.867C1211.52 421.747 1214.06 422.187 1216.66 422.187C1218.86 422.187 1220.64 421.947 1222 421.467C1223.36 420.987 1224.36 420.347 1225 419.547C1225.64 418.707 1225.96 417.767 1225.96 416.727C1225.96 415.447 1225.5 414.427 1224.58 413.667C1223.66 412.867 1222.46 412.247 1220.98 411.807C1219.54 411.327 1217.92 410.887 1216.12 410.487C1214.36 410.087 1212.58 409.627 1210.78 409.107C1209.02 408.547 1207.4 407.847 1205.92 407.007C1204.48 406.127 1203.3 404.967 1202.38 403.527C1201.46 402.087 1201 400.247 1201 398.007C1201 395.727 1201.6 393.647 1202.8 391.767C1204.04 389.847 1205.9 388.327 1208.38 387.207C1210.9 386.047 1214.08 385.467 1217.92 385.467C1220.44 385.467 1222.94 385.787 1225.42 386.427C1227.9 387.067 1230.06 387.987 1231.9 389.187L1229.44 395.247C1227.56 394.127 1225.62 393.307 1223.62 392.787C1221.62 392.227 1219.7 391.947 1217.86 391.947C1215.7 391.947 1213.94 392.207 1212.58 392.727C1211.26 393.247 1210.28 393.927 1209.64 394.767C1209.04 395.607 1208.74 396.567 1208.74 397.647C1208.74 398.927 1209.18 399.967 1210.06 400.767C1210.98 401.527 1212.16 402.127 1213.6 402.567C1215.08 403.007 1216.72 403.447 1218.52 403.887C1220.32 404.287 1222.1 404.747 1223.86 405.267C1225.66 405.787 1227.28 406.467 1228.72 407.307C1230.2 408.147 1231.38 409.287 1232.26 410.727C1233.18 412.167 1233.64 413.987 1233.64 416.187C1233.64 418.427 1233.02 420.507 1231.78 422.427C1230.58 424.307 1228.72 425.827 1226.2 426.987C1223.68 428.107 1220.5 428.667 1216.66 428.667ZM1328.28 428.067V411.447L1330.02 416.247L1311.78 386.067H1320.12L1334.76 410.367H1330.08L1344.84 386.067H1352.52L1334.28 416.247L1336.08 411.447V428.067H1328.28ZM1405.49 428.667C1402.21 428.667 1399.19 428.127 1396.43 427.047C1393.67 425.967 1391.27 424.467 1389.23 422.547C1387.19 420.587 1385.61 418.307 1384.49 415.707C1383.37 413.067 1382.81 410.187 1382.81 407.067C1382.81 403.947 1383.37 401.087 1384.49 398.487C1385.61 395.847 1387.19 393.567 1389.23 391.647C1391.27 389.687 1393.67 388.167 1396.43 387.087C1399.19 386.007 1402.19 385.467 1405.43 385.467C1408.71 385.467 1411.71 386.007 1414.43 387.087C1417.19 388.167 1419.59 389.687 1421.63 391.647C1423.67 393.567 1425.25 395.847 1426.37 398.487C1427.49 401.087 1428.05 403.947 1428.05 407.067C1428.05 410.187 1427.49 413.067 1426.37 415.707C1425.25 418.347 1423.67 420.627 1421.63 422.547C1419.59 424.467 1417.19 425.967 1414.43 427.047C1411.71 428.127 1408.73 428.667 1405.49 428.667ZM1405.43 421.827C1407.55 421.827 1409.51 421.467 1411.31 420.747C1413.11 420.027 1414.67 419.007 1415.99 417.687C1417.31 416.327 1418.33 414.767 1419.05 413.007C1419.81 411.207 1420.19 409.227 1420.19 407.067C1420.19 404.907 1419.81 402.947 1419.05 401.187C1418.33 399.387 1417.31 397.827 1415.99 396.507C1414.67 395.147 1413.11 394.107 1411.31 393.387C1409.51 392.667 1407.55 392.307 1405.43 392.307C1403.31 392.307 1401.35 392.667 1399.55 393.387C1397.79 394.107 1396.23 395.147 1394.87 396.507C1393.55 397.827 1392.51 399.387 1391.75 401.187C1391.03 402.947 1390.67 404.907 1390.67 407.067C1390.67 409.187 1391.03 411.147 1391.75 412.947C1392.51 414.747 1393.55 416.327 1394.87 417.687C1396.19 419.007 1397.75 420.027 1399.55 420.747C1401.35 421.467 1403.31 421.827 1405.43 421.827ZM1484.38 428.667C1478.62 428.667 1474.1 427.047 1470.82 423.807C1467.58 420.567 1465.96 415.887 1465.96 409.767V386.067H1473.76V409.467C1473.76 413.787 1474.68 416.927 1476.52 418.887C1478.4 420.847 1481.04 421.827 1484.44 421.827C1487.84 421.827 1490.46 420.847 1492.3 418.887C1494.14 416.927 1495.06 413.787 1495.06 409.467V386.067H1502.74V409.767C1502.74 415.887 1501.1 420.567 1497.82 423.807C1494.58 427.047 1490.1 428.667 1484.38 428.667ZM1609.68 428.667C1606.48 428.667 1603.5 428.147 1600.74 427.107C1598.02 426.027 1595.64 424.527 1593.6 422.607C1591.6 420.647 1590.04 418.347 1588.92 415.707C1587.8 413.067 1587.24 410.187 1587.24 407.067C1587.24 403.947 1587.8 401.067 1588.92 398.427C1590.04 395.787 1591.62 393.507 1593.66 391.587C1595.7 389.627 1598.08 388.127 1600.8 387.087C1603.52 386.007 1606.5 385.467 1609.74 385.467C1613.18 385.467 1616.32 386.067 1619.16 387.267C1622 388.427 1624.4 390.167 1626.36 392.487L1621.32 397.227C1619.8 395.587 1618.1 394.367 1616.22 393.567C1614.34 392.727 1612.3 392.307 1610.1 392.307C1607.9 392.307 1605.88 392.667 1604.04 393.387C1602.24 394.107 1600.66 395.127 1599.3 396.447C1597.98 397.767 1596.94 399.327 1596.18 401.127C1595.46 402.927 1595.1 404.907 1595.1 407.067C1595.1 409.227 1595.46 411.207 1596.18 413.007C1596.94 414.807 1597.98 416.367 1599.3 417.687C1600.66 419.007 1602.24 420.027 1604.04 420.747C1605.88 421.467 1607.9 421.827 1610.1 421.827C1612.3 421.827 1614.34 421.427 1616.22 420.627C1618.1 419.787 1619.8 418.527 1621.32 416.847L1626.36 421.647C1624.4 423.927 1622 425.667 1619.16 426.867C1616.32 428.067 1613.16 428.667 1609.68 428.667ZM1682.64 428.667C1679.36 428.667 1676.34 428.127 1673.58 427.047C1670.82 425.967 1668.42 424.467 1666.38 422.547C1664.34 420.587 1662.76 418.307 1661.64 415.707C1660.52 413.067 1659.96 410.187 1659.96 407.067C1659.96 403.947 1660.52 401.087 1661.64 398.487C1662.76 395.847 1664.34 393.567 1666.38 391.647C1668.42 389.687 1670.82 388.167 1673.58 387.087C1676.34 386.007 1679.34 385.467 1682.58 385.467C1685.86 385.467 1688.86 386.007 1691.58 387.087C1694.34 388.167 1696.74 389.687 1698.78 391.647C1700.82 393.567 1702.4 395.847 1703.52 398.487C1704.64 401.087 1705.2 403.947 1705.2 407.067C1705.2 410.187 1704.64 413.067 1703.52 415.707C1702.4 418.347 1700.82 420.627 1698.78 422.547C1696.74 424.467 1694.34 425.967 1691.58 427.047C1688.86 428.127 1685.88 428.667 1682.64 428.667ZM1682.58 421.827C1684.7 421.827 1686.66 421.467 1688.46 420.747C1690.26 420.027 1691.82 419.007 1693.14 417.687C1694.46 416.327 1695.48 414.767 1696.2 413.007C1696.96 411.207 1697.34 409.227 1697.34 407.067C1697.34 404.907 1696.96 402.947 1696.2 401.187C1695.48 399.387 1694.46 397.827 1693.14 396.507C1691.82 395.147 1690.26 394.107 1688.46 393.387C1686.66 392.667 1684.7 392.307 1682.58 392.307C1680.46 392.307 1678.5 392.667 1676.7 393.387C1674.94 394.107 1673.38 395.147 1672.02 396.507C1670.7 397.827 1669.66 399.387 1668.9 401.187C1668.18 402.947 1667.82 404.907 1667.82 407.067C1667.82 409.187 1668.18 411.147 1668.9 412.947C1669.66 414.747 1670.7 416.327 1672.02 417.687C1673.34 419.007 1674.9 420.027 1676.7 420.747C1678.5 421.467 1680.46 421.827 1682.58 421.827ZM1743.46 428.067V386.067H1761.82C1766.38 386.067 1770.38 386.947 1773.82 388.707C1777.26 390.467 1779.94 392.907 1781.86 396.027C1783.78 399.147 1784.74 402.827 1784.74 407.067C1784.74 411.267 1783.78 414.947 1781.86 418.107C1779.94 421.227 1777.26 423.667 1773.82 425.427C1770.38 427.187 1766.38 428.067 1761.82 428.067H1743.46ZM1751.26 421.467H1761.46C1764.62 421.467 1767.34 420.867 1769.62 419.667C1771.94 418.467 1773.72 416.787 1774.96 414.627C1776.24 412.467 1776.88 409.947 1776.88 407.067C1776.88 404.147 1776.24 401.627 1774.96 399.507C1773.72 397.347 1771.94 395.667 1769.62 394.467C1767.34 393.267 1764.62 392.667 1761.46 392.667H1751.26V421.467ZM1830.23 403.527H1851.11V409.947H1830.23V403.527ZM1830.83 421.527H1854.53V428.067H1823.03V386.067H1853.69V392.607H1830.83V421.527Z" fill="#2563EB"/>
</svg>
