<svg width="490" height="490" viewBox="0 0 490 490" fill="none" xmlns="http://www.w3.org/2000/svg">
<path d="M286 11.2C247.333 30.4 216 53.2 187.2 83.0667C154.133 117.2 128.533 157.2 112.933 198.667C105.467 218.533 105.2 216 116.933 233.6C122.667 242.267 127.733 249.333 128.267 249.333C128.8 249.333 130.533 246.8 132.133 243.733C148.133 212.267 188.933 165.2 224.533 136.933C252.667 114.667 287.867 93.2 321.6 77.8667L338.533 70.2667L336.8 66.1333C335.867 63.8667 329.467 48 322.667 30.9333C315.733 14 309.733 0 309.333 0C308.933 0 298.4 5.06667 286 11.2Z" fill="#2563EB"/>
<path d="M272.667 110.4C266.133 114.667 258.4 119.6 255.733 121.467L250.8 124.8L265.067 134.133C309.733 163.067 351.333 206.267 382.667 256.267C391.2 269.867 413.467 312.8 417.733 323.6C418.933 326.8 420.533 329.333 421.067 329.333C422.8 329.333 488.533 302.533 489.733 301.333C491.333 300 480.4 275.733 470.533 258.933C452.667 228 436.933 207.467 412 182.667C386.8 157.333 364.8 140.8 334 123.6C319.2 115.333 290.533 102.667 286.933 102.667C285.733 102.8 279.333 106.267 272.667 110.4Z" fill="#2563EB"/>
<path d="M34.4 171.733C15.4667 179.467 0 186.4 0 187.067C0 189.067 14.5333 218.933 20.9333 230C62.2667 301.2 123.867 354.267 198.667 383.2C204.933 385.6 213.467 388.667 217.6 389.867L225.2 392L241.2 382.4C250.133 377.067 257.333 372.4 257.333 372C257.333 371.6 252.8 368.933 247.2 366.133C211.467 347.867 166.533 309.067 136.133 270.667C113.733 242.4 90.1333 203.2 76.4 171.6C72.9333 163.733 69.8667 157.467 69.4667 157.467C69.0667 157.6 53.2 164 34.4 171.733Z" fill="#2563EB"/>
<path d="M247.6 208C232.8 210.533 218.133 223.733 213.867 238.267C206.4 264.133 222.533 290.4 248.4 294.4C268.4 297.6 287.333 287.6 295.733 269.6C310.533 237.467 282.933 202 247.6 208Z" fill="#2563EB"/>
<path d="M374 269.733C360.533 290 337.867 316 316.933 334.8C282.133 366 244.667 390.4 198.933 411.467C190.4 415.467 183.333 419.2 183.333 419.733C183.333 420.4 189.6 436.267 197.2 454.933L210.933 489.067L215.2 487.6C225.067 484.133 259.2 465.733 274.533 455.467C297.6 440 311.2 428.933 330 410C356.667 383.333 376 357.067 393.2 324L402.533 306L397.733 297.333C388 279.6 379.6 265.2 378.667 264.667C378.133 264.267 376 266.533 374 269.733Z" fill="#2563EB"/>
</svg>
